<svg width="1600" height="900" viewBox="0 0 1600 900" fill="none" xmlns="http://www.w3.org/2000/svg">
  <defs>
    <linearGradient id="bg" x1="172" y1="98" x2="1426" y2="804" gradientUnits="userSpaceOnUse">
      <stop stop-color="#07111F"/>
      <stop offset="0.55" stop-color="#0D1F35"/>
      <stop offset="1" stop-color="#142C45"/>
    </linearGradient>
    <radialGradient id="glowLeft" cx="0" cy="0" r="1" gradientUnits="userSpaceOnUse" gradientTransform="translate(330 610) rotate(19.2493) scale(407.984 263.582)">
      <stop stop-color="#1DD6C1" stop-opacity="0.3"/>
      <stop offset="1" stop-color="#1DD6C1" stop-opacity="0"/>
    </radialGradient>
    <radialGradient id="glowRight" cx="0" cy="0" r="1" gradientUnits="userSpaceOnUse" gradientTransform="translate(1245 405) rotate(147.172) scale(474.125 336.782)">
      <stop stop-color="#5DEBFF" stop-opacity="0.28"/>
      <stop offset="1" stop-color="#5DEBFF" stop-opacity="0"/>
    </radialGradient>
    <linearGradient id="line" x1="231" y1="572" x2="1344" y2="410" gradientUnits="userSpaceOnUse">
      <stop stop-color="#1ED7C2"/>
      <stop offset="0.52" stop-color="#7AF7F1"/>
      <stop offset="1" stop-color="#57C9FF"/>
    </linearGradient>
    <linearGradient id="panelStroke" x1="1092" y1="292" x2="1457" y2="588" gradientUnits="userSpaceOnUse">
      <stop stop-color="#67E7F3"/>
      <stop offset="1" stop-color="#2F6E9F"/>
    </linearGradient>
    <filter id="softBlur" x="-80" y="-80" width="1760" height="1060" filterUnits="userSpaceOnUse" color-interpolation-filters="sRGB">
      <feGaussianBlur stdDeviation="40"/>
    </filter>
    <filter id="nodeGlow" x="0" y="0" width="1600" height="900" filterUnits="userSpaceOnUse" color-interpolation-filters="sRGB">
      <feGaussianBlur stdDeviation="8"/>
    </filter>
  </defs>

  <rect width="1600" height="900" rx="28" fill="url(#bg)"/>
  <rect width="1600" height="900" rx="28" fill="url(#glowLeft)"/>
  <rect width="1600" height="900" rx="28" fill="url(#glowRight)"/>

  <g opacity="0.45">
    <circle cx="173" cy="177" r="2" fill="#93E7FF"/>
    <circle cx="310" cy="132" r="2" fill="#93E7FF"/>
    <circle cx="447" cy="181" r="2" fill="#93E7FF"/>
    <circle cx="1385" cy="131" r="2" fill="#93E7FF"/>
    <circle cx="1453" cy="215" r="2" fill="#93E7FF"/>
    <circle cx="1240" cy="774" r="2" fill="#93E7FF"/>
    <circle cx="1373" cy="723" r="2" fill="#93E7FF"/>
    <circle cx="268" cy="756" r="2" fill="#93E7FF"/>
    <circle cx="181" cy="690" r="2" fill="#93E7FF"/>
  </g>

  <g opacity="0.13">
    <path d="M170 216L544 216" stroke="#94D9F8"/>
    <path d="M1068 188L1424 188" stroke="#94D9F8"/>
    <path d="M1172 690L1456 690" stroke="#94D9F8"/>
    <path d="M132 746L384 746" stroke="#94D9F8"/>
  </g>

  <g opacity="0.85">
    <rect x="157" y="492" width="188" height="122" rx="18" fill="#0C1B2C" stroke="#285579" stroke-width="2"/>
    <rect x="175" y="511" width="152" height="87" rx="10" fill="#102338"/>
    <rect x="215" y="614" width="72" height="10" rx="5" fill="#21425E"/>
    <rect x="401" y="548" width="86" height="145" rx="18" fill="#0D1C2F" stroke="#285579" stroke-width="2"/>
    <rect x="414" y="568" width="60" height="94" rx="10" fill="#102338"/>
    <rect x="432" y="681" width="24" height="5" rx="2.5" fill="#21425E"/>
  </g>

  <g filter="url(#softBlur)" opacity="0.55">
    <path d="M315 585C453 564 548 544 643 515C762 479 861 441 978 430C1062 421 1154 426 1332 440" stroke="#31E1D0" stroke-width="22" stroke-linecap="round"/>
  </g>

  <path d="M315 585C453 564 548 544 643 515C762 479 861 441 978 430C1062 421 1154 426 1332 440" stroke="url(#line)" stroke-width="6" stroke-linecap="round"/>

  <g filter="url(#nodeGlow)" opacity="0.8">
    <circle cx="530" cy="546" r="12" fill="#73F7EC"/>
    <circle cx="732" cy="484" r="12" fill="#73F7EC"/>
    <circle cx="948" cy="435" r="12" fill="#73F7EC"/>
    <circle cx="1169" cy="429" r="12" fill="#73F7EC"/>
  </g>

  <g>
    <circle cx="530" cy="546" r="7" fill="#C7FFFC"/>
    <circle cx="732" cy="484" r="7" fill="#C7FFFC"/>
    <circle cx="948" cy="435" r="7" fill="#C7FFFC"/>
    <circle cx="1169" cy="429" r="7" fill="#C7FFFC"/>
  </g>

  <g>
    <rect x="640" y="385" width="226" height="142" rx="22" fill="#0A1626" stroke="#2A5777" stroke-width="2"/>
    <path d="M709 444C709 411.533 735.533 385 768 385H799C831.467 385 858 411.533 858 444V447H709V444Z" fill="#12324C"/>
    <rect x="688" y="447" width="190" height="51" rx="18" fill="#10273E"/>
    <rect x="706" y="464" width="52" height="8" rx="4" fill="#69EDE2" fill-opacity="0.82"/>
    <rect x="706" y="479" width="86" height="8" rx="4" fill="#2B4B64"/>
    <rect x="804" y="464" width="56" height="8" rx="4" fill="#69EDE2" fill-opacity="0.52"/>
    <rect x="804" y="479" width="42" height="8" rx="4" fill="#2B4B64"/>
  </g>

  <g>
    <rect x="1098" y="292" width="327" height="260" rx="28" fill="#0A1525" stroke="url(#panelStroke)" stroke-width="2"/>
    <rect x="1130" y="330" width="263" height="24" rx="12" fill="#123049"/>
    <rect x="1130" y="384" width="96" height="14" rx="7" fill="#68EEE3"/>
    <rect x="1130" y="414" width="181" height="12" rx="6" fill="#2B506B"/>
    <rect x="1130" y="440" width="150" height="12" rx="6" fill="#2B506B"/>
    <rect x="1130" y="482" width="235" height="20" rx="10" fill="#122840"/>
    <rect x="1148" y="489" width="82" height="6" rx="3" fill="#67E8EF"/>
    <rect x="1130" y="526" width="124" height="16" rx="8" fill="#1BD3C3" fill-opacity="0.16"/>
    <rect x="1272" y="526" width="121" height="16" rx="8" fill="#59C7FF" fill-opacity="0.14"/>
    <circle cx="1337" cy="404" r="28" fill="#0E2236" stroke="#58C7FF" stroke-width="2"/>
    <path d="M1324 404L1334 414L1352 393" stroke="#83F4EE" stroke-width="4" stroke-linecap="round" stroke-linejoin="round"/>
  </g>

  <g>
    <rect x="108" y="112" width="628" height="264" rx="28" fill="#091524" fill-opacity="0.82" stroke="#1F425D" stroke-width="2"/>
    <text x="154" y="198" fill="#EAF7FF" font-size="64" font-weight="700" font-family="'PingFang SC','Microsoft YaHei','Noto Sans CJK SC',sans-serif">不是代理</text>
    <text x="154" y="284" fill="#74F0E6" font-size="78" font-weight="700" font-family="'PingFang SC','Microsoft YaHei','Noto Sans CJK SC',sans-serif">是生产线</text>
    <text x="154" y="340" fill="#9BC7DE" font-size="28" font-weight="500" font-family="'PingFang SC','Microsoft YaHei','Noto Sans CJK SC',sans-serif">Claude 通道为什么突然变多</text>
  </g>

  <g opacity="0.82">
    <rect x="112" y="786" width="204" height="44" rx="22" fill="#11253B"/>
    <circle cx="145" cy="808" r="6" fill="#70F3E8"/>
    <text x="165" y="817" fill="#C7E2F2" font-size="20" font-weight="500" font-family="'PingFang SC','Microsoft YaHei','Noto Sans CJK SC',sans-serif">Stable AI Workflow</text>
  </g>
</svg>
