<svg xmlns="http://www.w3.org/2000/svg" width="1242" height="1660" viewBox="0 0 1242 1660">
  <rect width="1242" height="1660" fill="#F6FBFF"/>
  <text x="90" y="170" font-size="60" font-family="'Microsoft YaHei', sans-serif" fill="#3B7EA1" font-weight="700">02 这 8 个能力最值得补</text>
  <rect x="88" y="250" rx="32" ry="32" width="500" height="170" fill="#FFFFFF"/>
  <rect x="654" y="250" rx="32" ry="32" width="500" height="170" fill="#FFFFFF"/>
  <rect x="88" y="460" rx="32" ry="32" width="500" height="170" fill="#FFFFFF"/>
  <rect x="654" y="460" rx="32" ry="32" width="500" height="170" fill="#FFFFFF"/>
  <rect x="88" y="670" rx="32" ry="32" width="500" height="170" fill="#FFFFFF"/>
  <rect x="654" y="670" rx="32" ry="32" width="500" height="170" fill="#FFFFFF"/>
  <rect x="88" y="880" rx="32" ry="32" width="500" height="170" fill="#FFFFFF"/>
  <rect x="654" y="880" rx="32" ry="32" width="500" height="170" fill="#FFFFFF"/>
  <text x="128" y="330" font-size="34" font-family="'Microsoft YaHei', sans-serif" fill="#16333B" font-weight="700">1 快速学习新工具</text>
  <text x="694" y="330" font-size="34" font-family="'Microsoft YaHei', sans-serif" fill="#16333B" font-weight="700">2 边学边输出</text>
  <text x="128" y="540" font-size="34" font-family="'Microsoft YaHei', sans-serif" fill="#16333B" font-weight="700">3 构建信息系统</text>
  <text x="694" y="540" font-size="34" font-family="'Microsoft YaHei', sans-serif" fill="#16333B" font-weight="700">4 设计工作流</text>
  <text x="128" y="750" font-size="34" font-family="'Microsoft YaHei', sans-serif" fill="#16333B" font-weight="700">5 让 AI 先出初版</text>
  <text x="694" y="750" font-size="34" font-family="'Microsoft YaHei', sans-serif" fill="#16333B" font-weight="700">6 判断值不值得学</text>
  <text x="128" y="960" font-size="34" font-family="'Microsoft YaHei', sans-serif" fill="#16333B" font-weight="700">7 按任务组合工具</text>
  <text x="694" y="960" font-size="34" font-family="'Microsoft YaHei', sans-serif" fill="#16333B" font-weight="700">8 保留人的判断力</text>
  <text x="92" y="1180" font-size="42" font-family="'Microsoft YaHei', sans-serif" fill="#3B7EA1" font-weight="700">核心结论：</text>
  <text x="92" y="1260" font-size="48" font-family="'Microsoft YaHei', sans-serif" fill="#16333B" font-weight="700">AI 越强，系统化能力越值钱</text>
</svg>
